#!OML:ASF H:\Dans Jumps\Project 1\Capture day 1\Session 1\subject.ASF
:FULLY-SPECIFIED
:DEGREES
245
root 0.470934 16.1932 -14.9633 17.1552 -0.105903 -2.19945
lowerback 12.1627 -0.483999 -0.29023
upperback 4.90457 -0.612128 2.16227
thorax -1.65971 -0.326485 2.4928
lowerneck -15.6212 0.633323 -1.76258
upperneck 14.7421 1.34248 -0.414819
head 7.07681 0.503522 0.294342
rclavicle -1.39149e-014 1.17283e-014
rhumerus -25.7313 -24.7509 -73.044
rradius 21.0274
rwrist 38.2377
rhand -17.254 -26.6262
rfingers 7.12502
rthumb 8.99027 -56.4147
lclavicle -1.39149e-014 1.17283e-014
lhumerus -22.9492 11.0875 80.5406
lradius 13.8723
lwrist -5.76995
lhand -22.58 -3.17629
lfingers 7.12502
lthumb 3.84867 26.7687
rfemur -45.7873 -1.06838 19.849
rtibia 55.1053
rfoot -29.1781 -10.9526
rtoes -1.43453
lfemur -46.7202 8.97906 -19.3581
ltibia 54.8144
lfoot -24.9172 16.4413
ltoes -16.6639
246
root 0.468314 16.1666 -14.9552 17.4835 0.0331939 -2.17137
lowerback 12.5113 -0.517507 -0.300176
upperback 4.80875 -0.651275 2.18435
thorax -1.94619 -0.343207 2.53313
lowerneck -15.7774 0.624686 -1.80178
upperneck 14.4772 1.33582 -0.38915
head 7.01704 0.502856 0.30808
rclavicle 1.0138e-014 -2.38542e-015
rhumerus -25.7099 -24.608 -73.1256
rradius 21.1544
rwrist 37.9554
rhand -17.2981 -26.6
rfingers 7.12502
rthumb 8.94771 -56.3903
lclavicle 1.0138e-014 -2.38542e-015
lhumerus -22.7781 11.4246 80.4663
lradius 13.8297
lwrist -6.01194
lhand -22.6784 -3.37345
lfingers 7.12502
lthumb 3.75364 26.5732
rfemur -46.3734 -1.03574 19.8335
rtibia 55.6237
rfoot -29.5229 -11.2656
rtoes -1.70667
lfemur -47.3122 8.56172 -19.3183
ltibia 55.3053
lfoot -25.1025 16.824
ltoes -16.7196
247
root 0.465446 16.1397 -14.9471 17.8351 0.174214 -2.14172
lowerback 12.8654 -0.545709 -0.310304
upperback 4.70608 -0.68317 2.20806
thorax -2.24297 -0.35606 2.5751
lowerneck -15.9303 0.611442 -1.83691
upperneck 14.1978 1.32296 -0.369515
head 6.95213 0.499092 0.318446
rclavicle -9.93923e-016 -2.98177e-016
rhumerus -25.6775 -24.4168 -73.2287
rradius 21.3049
rwrist 37.5903
rhand -17.3225 -26.6032
rfingers 7.12502
rthumb 8.92419 -56.3944
lclavicle -9.93923e-016 -2.98177e-016
lhumerus -22.5848 11.671 80.4333
lradius 13.821
lwrist -6.13322
lhand -22.7816 -3.55156
lfingers 7.12502
lthumb 3.65401 26.3969
rfemur -46.9873 -0.989916 19.8127
rtibia 56.1446
rfoot -29.8385 -11.6007
rtoes -1.97124
lfemur -47.9295 8.12043 -19.2701
ltibia 55.7967
lfoot -25.2701 17.203
ltoes -16.7602
248
root 0.462263 16.1124 -14.9392 18.2104 0.320121 -2.1147
lowerback 13.2266 -0.569644 -0.317395
upperback 4.59629 -0.708676 2.23539
thorax -2.55133 -0.365444 2.61904
lowerneck -16.0853 0.592427 -1.88183
upperneck 13.909 1.30337 -0.342247
head 6.88452 0.492396 0.332125
rclavicle 1.51076e-014 -1.61016e-014
rhumerus -25.6298 -24.1912 -73.3475
rradius 21.4662
rwrist 37.1665
rhand -17.3347 -26.6072
rfingers 7.12502
rthumb 8.91235 -56.3989
lclavicle 1.51076e-014 -1.61016e-014
lhumerus -22.3711 11.8157 80.4443
lradius 13.8515
lwrist -6.12253
lhand -22.8873 -3.68985
lfingers 7.12502
lthumb 3.55192 26.2603
rfemur -47.6296 -0.933709 19.7934
rtibia 56.6709
rfoot -30.1359 -11.9479
rtoes -2.21331
lfemur -48.5761 7.66058 -19.2085
ltibia 56.2916
lfoot -25.4183 17.5749
ltoes -16.7743
249
root 0.458596 16.0843 -14.9313 18.6116 0.463757 -2.09208
lowerback 13.5968 -0.587506 -0.32552
upperback 4.47859 -0.725876 2.2661
thorax -2.87319 -0.370405 2.6667
lowerneck -16.2401 0.570935 -1.9256
upperneck 13.6044 1.28079 -0.318478
head 6.81183 0.484217 0.34408
rclavicle 1.39149e-015 4.47266e-015
rhumerus -25.5676 -23.9115 -73.4875
rradius 21.6436
rwrist 36.67
rhand -17.3197 -26.6415
rfingers 7.12502
rthumb 8.92686 -56.4327
lclavicle 1.39149e-015 4.47266e-015
lhumerus -22.1386 11.8694 80.4925
lradius 13.917
lwrist -6.00424
lhand -22.9774 -3.78822
lfingers 7.12502
lthumb 3.46488 26.1634
rfemur -48.3061 -0.858101 19.7762
rtibia 57.2066
rfoot -30.4177 -12.3044
rtoes -2.42239
lfemur -49.2579 7.19702 -19.1343
ltibia 56.7929
lfoot -25.5435 17.9336
ltoes -16.7521
250
root 0.45446 16.055 -14.9236 19.0467 0.602699 -2.07636
lowerback 13.9757 -0.600924 -0.334233
upperback 4.35185 -0.736837 2.29992
thorax -3.20954 -0.371926 2.71778
lowerneck -16.4021 0.547036 -1.99268
upperneck 13.2837 1.25691 -0.272281
head 6.73487 0.476411 0.366874
rclavicle -1.15295e-014 -3.67752e-015
rhumerus -25.4784 -23.6084 -73.6451
rradius 21.8106
rwrist 36.1722
rhand -17.3222 -26.6814
rfingers 7.12502
rthumb 8.92441 -56.4727
lclavicle -1.15295e-014 -3.67752e-015
lhumerus -21.8817 11.8504 80.5664
lradius 14.0084
lwrist -5.81528
lhand -23.0104 -3.81014
lfingers 7.12502
lthumb 3.43302 26.142
rfemur -49.0279 -0.762798 19.7639
rtibia 57.7548
rfoot -30.6821 -12.6688
rtoes -2.57811
lfemur -49.9872 6.74308 -19.0485
ltibia 57.3045
lfoot -25.6558 18.261
ltoes -16.6892
